Coordinates
version=1
nRows=7
nColumns=33
inDegrees=yes

Units are S.I. units (second, meters, Newtons, ...)
Angles are in degrees.

endheader
time	ground_thorax_rot_x	ground_thorax_rot_y	ground_thorax_rot_z	ground_thorax_tx	ground_thorax_ty	ground_thorax_tz	clav_prot_r	clav_elev_r	scapula_abduction_r	scapula_elevation_r	scapula_upward_rot_r	scapula_winging_r	shoulder_elv_r	plane_of_elev_r	axial_rot_r	elbow_flexion_r	pro_sup_r	wrist_flex_r	wrist_dev_r	clav_prot_l	clav_elev_l	scapula_abduction_l	scapula_elevation_l	scapula_upward_rot_l	scapula_winging_l	shoulder_elv_l	plane_of_elev_l	axial_rot_l	elbow_flexion_l	pro_sup_l	wrist_flex_l	wrist_dev_l
      4.23000000	     36.91371762	     16.54376157	     18.76993025	   -238.90116251	    828.99072590	      9.07480053	     12.34405557	     35.57357961	     34.49351369	     45.00000000	    -45.00000000	  -4764.25003203	  -1543.64052573	    143.94853212	    179.99999979	   2172.69828084	     53.82460870	     23.67225606	      7.01373661	      7.33087357	    -45.00000000	    -37.57178509	     45.00000000	    -40.19917709	   1899.71538537	  -1891.17013947	    138.19062639	    151.84661988	    730.54703487	      8.13768030	      5.08687332	    -20.21485373
      4.24000000	     36.97933381	     16.22742564	     18.41973377	   -241.22704102	    829.38374618	      9.15400309	     12.01296159	     35.68913043	     34.51078352	     45.00000000	    -45.00000000	  -4764.32736800	  -1543.74251401	    144.04037643	    179.99999979	   2172.76676310	     54.27029254	     23.58612793	      6.70897260	      7.04109013	    -45.00000000	    -37.63725324	     45.00000000	    -39.62194726	   1899.73534544	  -1891.28040782	    138.45140251	    151.83626882	    730.57052595	      8.76065899	      4.92331598	    -20.22445273
      4.25000000	     37.03358135	     16.00466858	     18.16280371	   -243.50333414	    829.72922044	      9.23046284	     11.98630129	     35.67092387	     34.35655694	     45.00000000	    -45.00000000	  -4764.31914699	  -1543.68459672	    144.09793869	    179.99999979	   2172.78125116	     54.81574461	     23.58583904	      6.55791690	      7.08047646	    -45.00000000	    -37.59838386	     45.00000000	    -39.37331010	   1899.91210265	  -1891.27039042	    138.52683837	    151.39543204	    730.60968631	      9.51012859	      4.64929874	    -20.20201627
      4.26000000	     37.10414171	     15.77642734	     17.89571981	   -245.72518109	    830.03118137	      9.30564177	     11.88027889	     35.67045392	     34.26746313	     45.00000000	    -45.00000000	  -4764.27908552	  -1543.66375727	    144.14276523	    179.99999979	   2172.73138453	     55.40424048	     23.55856488	      6.39354900	      7.02877113	    -45.00000000	    -37.58337498	     45.00000000	    -39.31847680	   1900.00473596	  -1891.32478679	    138.62736190	    151.17137968	    730.58095950	     10.31394476	      4.41190290	    -20.16306528
      4.27000000	     37.20250393	     15.56870137	     17.63938673	   -247.88451707	    830.29052228	      9.37857864	     11.78918274	     35.65854893	     34.11815250	     45.00000000	    -45.00000000	  -4764.27406368	  -1543.57336359	    144.15540794	    179.99999979	   2172.65070127	     56.02055811	     23.56025575	      6.26216306	      7.01997028	    -45.00000000	    -37.42633140	     45.00000000	    -39.57626119	   1900.03058498	  -1891.35151694	    138.56864514	    151.17961640	    730.56900302	     11.13407903	      4.14775636	    -20.11531809
      4.28000000	     37.16729322	     15.70981493	     17.89909178	   -249.98164214	    830.51063745	      9.44932132	     12.04949083	     35.49301441	     33.75735012	     45.00000000	    -45.00000000	  -4764.26684398	  -1543.47371802	    144.19624244	    179.99999979	   2172.63921954	     57.39581105	     23.77099590	      6.18935964	      7.78243837	    -45.00000000	    -36.92115232	     45.00000000	    -42.55153900	   1899.95473580	  -1890.84189811	    137.79577297	    153.12230288	    730.64989984	     12.98579411	      3.53276278	    -19.97402039
      4.29000000	     37.14179766	     15.46058114	     17.62832982	   -252.01112302	    830.69032810	      9.51456733	     11.88650781	     35.52840842	     33.75288998	     45.00000000	    -45.00000000	  -4764.25875114	  -1543.73623749	    144.36186775	    179.99999979	   2172.76362492	     58.01054940	     23.57146343	      5.88808493	      7.30691590	    -45.00000000	    -37.06500730	     45.00000000	    -41.44587840	   1900.14417802	  -1890.94460626	    138.17358702	    152.62978322	    730.76690781	     14.29409589	      3.61764035	    -20.09000891
